<svg fill="#000000" xmlns="http://www.w3.org/2000/svg"  viewBox="0 0 16 16" width="64px" height="64px"><path d="M 7.5 1 C 3.929688 1 1 3.78125 1 7.226563 C 1 9.019531 1.714844 10.53125 3 11.65625 L 3 14.433594 L 5.5 12.765625 C 6.238281 12.878906 6.792969 13 7.5 13 C 9.261719 13 10.878906 12.4375 12.066406 11.429688 C 13.253906 10.421875 14 8.949219 14 7.226563 C 14 3.78125 11.070313 1 7.5 1 Z M 7.5 2 C 10.554688 2 13 4.347656 13 7.226563 C 13 8.667969 12.402344 9.832031 11.417969 10.667969 C 10.433594 11.503906 9.050781 12 7.5 12 C 6.84375 12 6.339844 11.882813 5.445313 11.753906 L 5.257813 11.730469 L 4 12.566406 L 4 11.257813 L 3.8125 11.109375 C 2.589844 10.144531 2 8.878906 2 7.226563 C 2 4.347656 4.445313 2 7.5 2 Z M 6 6 L 3 9 L 6 8 L 9 9 L 12 6 L 9 7 Z"/></svg>